<svg width="44" height="44" viewBox="0 0 44 44" fill="none" xmlns="http://www.w3.org/2000/svg">
<g clip-path="url(#clip0_408_1388)">
<path d="M44.0001 22.1347C44.0001 9.90819 34.1496 -0.00280762 22.0001 -0.00280762C9.84513 -5.7617e-05 -0.00537109 9.90819 -0.00537109 22.1374C-0.00537109 33.1842 8.04113 42.3417 18.5571 44.0027V28.5339H12.9746V22.1374H18.5626V17.2562C18.5626 11.7094 21.8489 8.64594 26.8731 8.64594C29.2821 8.64594 31.7984 9.07769 31.7984 9.07769V14.5227H29.0236C26.2929 14.5227 25.4404 16.2304 25.4404 17.9822V22.1347H31.5399L30.5664 28.5312H25.4376V43.9999C35.9536 42.3389 44.0001 33.1814 44.0001 22.1347Z" fill="black"/>
</g>
<defs>
<clipPath id="clip0_408_1388">
<rect width="44" height="44" fill="white"/>
</clipPath>
</defs>
</svg>
