<svg width="44" height="44" viewBox="0 0 44 44" fill="none" xmlns="http://www.w3.org/2000/svg">
<g clip-path="url(#clip0_408_1398)">
<path d="M22 0C16.1652 0 10.5695 2.31785 6.44365 6.44365C2.31785 10.5695 0 16.1652 0 22C0 27.8348 2.31785 33.4305 6.44365 37.5564C10.5695 41.6822 16.1652 44 22 44C27.8348 44 33.4305 41.6822 37.5564 37.5564C41.6822 33.4305 44 27.8348 44 22C44 16.1652 41.6822 10.5695 37.5564 6.44365C33.4305 2.31785 27.8348 0 22 0ZM32.0897 31.7295C31.9959 31.8834 31.8726 32.0173 31.7269 32.1234C31.5812 32.2296 31.416 32.3059 31.2407 32.3481C31.0654 32.3902 30.8836 32.3974 30.7055 32.3691C30.5275 32.3408 30.3568 32.2777 30.2032 32.1833C25.036 29.029 18.535 28.314 10.8762 30.0657C10.5214 30.1467 10.149 30.0834 9.84082 29.8897C9.53268 29.6961 9.31408 29.388 9.23313 29.0331C9.15217 28.6783 9.21548 28.3058 9.40914 27.9977C9.60279 27.6896 9.91092 27.471 10.2657 27.39C18.6478 25.476 25.8363 26.2983 31.6333 29.843C31.9434 30.0331 32.1656 30.3384 32.2512 30.692C32.3367 31.0455 32.2787 31.4186 32.0897 31.7295ZM34.782 25.74C34.5438 26.1275 34.1614 26.4046 33.7189 26.5103C33.2765 26.616 32.8102 26.5417 32.4225 26.3037C26.51 22.671 17.4955 21.6178 10.4995 23.7408C10.0737 23.8419 9.62529 23.7769 9.2458 23.5588C8.86631 23.3407 8.58431 22.9861 8.45732 22.5672C8.33033 22.1484 8.36792 21.6969 8.56242 21.3048C8.75692 20.9127 9.09368 20.6096 9.504 20.4573C17.4928 18.0345 27.4258 19.2087 34.2155 23.3805C34.6035 23.6183 34.8811 24.0005 34.9874 24.4429C35.0936 24.8854 35.0197 25.352 34.782 25.74ZM35.013 19.503C27.9235 15.29 16.225 14.9022 9.4545 16.9565C8.93229 17.1148 8.36859 17.0591 7.88742 16.8018C7.40625 16.5444 7.04702 16.1065 6.88875 15.5842C6.73048 15.062 6.78614 14.4983 7.04349 14.0172C7.30084 13.536 7.73879 13.1768 8.261 13.0185C16.0298 10.6618 28.9493 11.1155 37.114 15.961C37.5837 16.2396 37.9235 16.6934 38.0586 17.2225C38.1937 17.7517 38.1131 18.3128 37.8345 18.7825C37.5559 19.2522 37.1021 19.592 36.573 19.7271C36.0438 19.8622 35.4827 19.7816 35.013 19.503Z" fill="black"/>
</g>
<defs>
<clipPath id="clip0_408_1398">
<rect width="44" height="44" fill="white"/>
</clipPath>
</defs>
</svg>
