<svg width="44" height="44" viewBox="0 0 44 44" fill="none" xmlns="http://www.w3.org/2000/svg">
<path d="M13.8215 41.25C30.426 41.25 39.5093 27.4917 39.5093 15.5815C39.5093 15.1965 39.5093 14.806 39.4928 14.421C41.2612 13.1408 42.7874 11.5559 44 9.74045C42.3481 10.4688 40.5976 10.9488 38.8053 11.165C40.6932 10.0365 42.1072 8.26087 42.7845 6.1682C41.0107 7.21904 39.0693 7.95673 37.0452 8.34895C35.6845 6.89977 33.8839 5.93973 31.9222 5.61754C29.9606 5.29535 27.9475 5.62899 26.1947 6.56678C24.4419 7.50457 23.0472 8.99418 22.2267 10.8049C21.4063 12.6156 21.2057 14.6463 21.6562 16.5825C18.0668 16.4025 14.5552 15.47 11.3494 13.8455C8.14349 12.221 5.31488 9.94077 3.047 7.1527C1.89569 9.14118 1.54433 11.4933 2.06428 13.7314C2.58423 15.9696 3.9365 17.9259 5.8465 19.2032C4.41523 19.1546 3.01543 18.7702 1.76 18.0812V18.205C1.76247 20.288 2.48409 22.3064 3.8029 23.9188C5.12171 25.5312 6.95681 26.6389 8.998 27.0545C8.22322 27.2679 7.42288 27.3743 6.61925 27.3707C6.05271 27.3724 5.4873 27.3199 4.93075 27.214C5.50766 29.0071 6.631 30.5749 8.14343 31.6978C9.65586 32.8206 11.4816 33.4423 13.365 33.4757C10.1655 35.9887 6.21335 37.3516 2.145 37.345C1.42813 37.348 0.711764 37.3067 0 37.2212C4.12917 39.8537 8.92457 41.2515 13.8215 41.25Z" fill="black"/>
</svg>
