<svg width="25" height="25" viewBox="0 0 25 25" fill="none" xmlns="http://www.w3.org/2000/svg">
<path d="M10.7969 6.81572C11.0419 6.32572 11.4837 5.80859 12.1724 5.80859C12.861 5.80859 13.3029 6.32659 13.5479 6.81572C13.8007 7.32234 13.9224 7.93572 13.9224 8.43359V11.6632L18.4461 13.9251C18.6643 14.034 18.8478 14.2016 18.9761 14.409C19.1044 14.6164 19.1724 14.8555 19.1724 15.0993V16.3086C19.1723 16.3721 19.1585 16.4348 19.1318 16.4925C19.105 16.5501 19.0661 16.6012 19.0176 16.6422C18.9692 16.6833 18.9124 16.7133 18.8511 16.7302C18.7899 16.747 18.7258 16.7504 18.6631 16.74L13.8445 15.9367L13.5164 17.9081L14.6696 19.0613C14.731 19.1225 14.7728 19.2006 14.7897 19.2855C14.8066 19.3705 14.798 19.4586 14.7648 19.5386C14.7316 19.6187 14.6754 19.687 14.6033 19.7351C14.5312 19.7832 14.4465 19.8087 14.3599 19.8086H9.98486C9.89822 19.8087 9.81348 19.7832 9.74139 19.7351C9.6693 19.687 9.6131 19.6187 9.57993 19.5386C9.54675 19.4586 9.53808 19.3705 9.55503 19.2855C9.57198 19.2006 9.61377 19.1225 9.67511 19.0613L10.8292 17.9081L10.5002 15.9367L5.68161 16.74C5.61897 16.7504 5.5548 16.747 5.49358 16.7302C5.43236 16.7133 5.37554 16.6833 5.32708 16.6422C5.27863 16.6012 5.23968 16.5501 5.21297 16.4925C5.18625 16.4348 5.17239 16.3721 5.17236 16.3086V15.0993C5.17237 14.8555 5.24033 14.6164 5.36861 14.409C5.49689 14.2016 5.68042 14.034 5.89861 13.9251L10.4224 11.6632V8.43359C10.4224 7.93659 10.5449 7.32147 10.7969 6.81572ZM11.5791 7.20772C11.3945 7.57609 11.2974 8.05647 11.2974 8.43359V11.9336C11.2974 12.0148 11.2748 12.0944 11.2321 12.1634C11.1895 12.2325 11.1284 12.2883 11.0559 12.3247L6.28886 14.7082C6.21628 14.7446 6.15526 14.8004 6.11261 14.8695C6.06996 14.9386 6.04737 15.0182 6.04736 15.0993V15.7923L10.7881 15.0022C10.9024 14.9832 11.0195 15.0103 11.1138 15.0776C11.2082 15.1448 11.272 15.2467 11.2912 15.361L11.7287 17.986C11.7403 18.0549 11.7353 18.1255 11.7139 18.192C11.6926 18.2586 11.6557 18.319 11.6062 18.3683L11.0419 18.9336H13.3046L12.7385 18.3683C12.6892 18.3191 12.6523 18.2588 12.631 18.1924C12.6097 18.1261 12.6045 18.0556 12.616 17.9868L13.0535 15.3618C13.0629 15.3051 13.0835 15.2508 13.1139 15.202C13.1444 15.1532 13.1841 15.1109 13.2309 15.0775C13.2777 15.0441 13.3307 15.0203 13.3867 15.0074C13.4427 14.9944 13.5008 14.9927 13.5575 15.0022L18.2974 15.7923V15.0993C18.2974 15.0182 18.2748 14.9386 18.2321 14.8695C18.1895 14.8004 18.1284 14.7446 18.0559 14.7082L13.2889 12.3247C13.2163 12.2883 13.1553 12.2325 13.1126 12.1634C13.07 12.0944 13.0474 12.0148 13.0474 11.9336V8.43359C13.0474 8.05559 12.9511 7.57697 12.7656 7.20772C12.5731 6.82272 12.3587 6.68359 12.1724 6.68359C11.986 6.68359 11.7716 6.82184 11.5791 7.20772Z" fill="black"/>
</svg>
