<svg width="25" height="24" viewBox="0 0 25 24" fill="none" xmlns="http://www.w3.org/2000/svg">
<path d="M11.8454 19C11.6262 19 11.4432 18.9266 11.2964 18.7798C11.1496 18.633 11.0762 18.45 11.0762 18.2308V12.6539L5.68005 5.83077C5.54544 5.65127 5.52716 5.46794 5.62523 5.28077C5.72331 5.09359 5.88005 5 6.09543 5H18.057C18.2724 5 18.4291 5.09359 18.5272 5.28077C18.6252 5.46794 18.607 5.65127 18.4724 5.83077L13.0762 12.6539V18.2308C13.0762 18.45 13.0028 18.633 12.856 18.7798C12.7092 18.9266 12.5262 19 12.307 19H11.8454ZM12.0762 12.3L17.0262 6H7.1262L12.0762 12.3Z" fill="#DB4D05"/>
</svg>
