<svg width="24" height="24" viewBox="0 0 24 24" fill="none" xmlns="http://www.w3.org/2000/svg">
<path d="M9.81623 12.5385H12.1496L12.7583 13.741C12.8132 13.8537 12.8926 13.9407 12.9964 14.002C13.1003 14.0634 13.2094 14.094 13.3237 14.094H15.7992C15.9771 14.094 16.1263 14.0338 16.2467 13.9134C16.3671 13.793 16.4273 13.6438 16.4273 13.4658V10.5342C16.4273 10.3562 16.3671 10.207 16.2467 10.0866C16.1263 9.96619 15.9771 9.90599 15.7992 9.90599H14.1838L13.575 8.70341C13.5202 8.59073 13.4408 8.50373 13.3369 8.44241C13.233 8.38109 13.1239 8.35043 13.0096 8.35043H9.7564C9.57842 8.35043 9.42922 8.41063 9.30881 8.53103C9.18841 8.65145 9.12821 8.80064 9.12821 8.97863V16.0833C9.12821 16.1827 9.16063 16.2649 9.22547 16.3299C9.29033 16.3949 9.37234 16.4273 9.47152 16.4273C9.5707 16.4273 9.65295 16.3949 9.71827 16.3299C9.78358 16.2649 9.81623 16.1827 9.81623 16.0833V12.5385ZM13.3477 13.406L12.5699 11.8504H9.81623V9.03846H12.9857L13.7635 10.594H15.7393V13.406H13.3477ZM12.0026 19C11.0346 19 10.1246 18.8163 9.27241 18.449C8.42027 18.0816 7.67901 17.583 7.04865 16.9533C6.4183 16.3235 5.91927 15.5829 5.55156 14.7316C5.18385 13.8802 5 12.9706 5 12.0026C5 11.0346 5.18368 10.1246 5.55104 9.27241C5.91841 8.42027 6.41698 7.67901 7.04674 7.04865C7.67651 6.4183 8.41706 5.91927 9.26841 5.55156C10.1198 5.18385 11.0294 5 11.9974 5C12.9654 5 13.8754 5.18368 14.7276 5.55104C15.5797 5.91841 16.321 6.41697 16.9514 7.04674C17.5817 7.67651 18.0807 8.41706 18.4484 9.26841C18.8161 10.1198 19 11.0294 19 11.9974C19 12.9654 18.8163 13.8754 18.449 14.7276C18.0816 15.5797 17.583 16.321 16.9533 16.9514C16.3235 17.5817 15.5829 18.0807 14.7316 18.4484C13.8802 18.8161 12.9706 19 12.0026 19ZM12 18.2222C13.737 18.2222 15.2083 17.6194 16.4139 16.4139C17.6194 15.2083 18.2222 13.737 18.2222 12C18.2222 10.263 17.6194 8.79167 16.4139 7.58611C15.2083 6.38056 13.737 5.77778 12 5.77778C10.263 5.77778 8.79167 6.38056 7.58611 7.58611C6.38056 8.79167 5.77778 10.263 5.77778 12C5.77778 13.737 6.38056 15.2083 7.58611 16.4139C8.79167 17.6194 10.263 18.2222 12 18.2222Z" fill="white"/>
</svg>
