<svg width="24" height="24" viewBox="0 0 24 24" fill="none" xmlns="http://www.w3.org/2000/svg">
<path d="M12.0218 16.0684C12.1937 16.0684 12.3388 16.009 12.4569 15.8903C12.5751 15.7716 12.6342 15.6262 12.6342 15.4543C12.6342 15.2823 12.5748 15.1373 12.4561 15.0191C12.3374 14.901 12.192 14.8419 12.0201 14.8419C11.8482 14.8419 11.7031 14.9012 11.5849 15.02C11.4668 15.1387 11.4077 15.284 11.4077 15.456C11.4077 15.6279 11.467 15.773 11.5858 15.8911C11.7045 16.0093 11.8498 16.0684 12.0218 16.0684ZM12.0026 19C11.0346 19 10.1246 18.8163 9.27241 18.449C8.42026 18.0816 7.67901 17.583 7.04865 16.9533C6.4183 16.3235 5.91927 15.5829 5.55156 14.7316C5.18385 13.8802 5 12.9706 5 12.0026C5 11.0346 5.18368 10.1246 5.55104 9.27241C5.91841 8.42026 6.41698 7.67901 7.04674 7.04865C7.67651 6.4183 8.41706 5.91927 9.26841 5.55156C10.1198 5.18385 11.0294 5 11.9974 5C12.9654 5 13.8754 5.18368 14.7276 5.55104C15.5797 5.91841 16.321 6.41697 16.9514 7.04674C17.5817 7.67651 18.0807 8.41706 18.4484 9.26841C18.8161 10.1198 19 11.0294 19 11.9974C19 12.9654 18.8163 13.8754 18.449 14.7276C18.0816 15.5797 17.583 16.321 16.9533 16.9514C16.3235 17.5817 15.5829 18.0807 14.7316 18.4484C13.8802 18.8161 12.9706 19 12.0026 19ZM12 18.2222C13.737 18.2222 15.2083 17.6194 16.4139 16.4139C17.6194 15.2083 18.2222 13.737 18.2222 12C18.2222 10.263 17.6194 8.79167 16.4139 7.58611C15.2083 6.38056 13.737 5.77778 12 5.77778C10.263 5.77778 8.79167 6.38056 7.58611 7.58611C6.38056 8.79167 5.77778 10.263 5.77778 12C5.77778 13.737 6.38056 15.2083 7.58611 16.4139C8.79167 17.6194 10.263 18.2222 12 18.2222ZM12.0482 8.68546C12.4418 8.68546 12.781 8.80769 13.0657 9.05214C13.3504 9.29659 13.4927 9.60214 13.4927 9.96879C13.4927 10.254 13.4127 10.5117 13.2527 10.7421C13.0926 10.9724 12.9074 11.1848 12.697 11.3793C12.4305 11.6209 12.1958 11.8868 11.9931 12.1768C11.7903 12.4667 11.6739 12.7862 11.644 13.1353C11.634 13.237 11.6657 13.322 11.739 13.3903C11.8123 13.4586 11.8978 13.4927 11.9955 13.4927C12.1002 13.4927 12.1882 13.4578 12.2595 13.388C12.3308 13.3182 12.3759 13.236 12.3949 13.1412C12.4467 12.879 12.5509 12.6459 12.7075 12.442C12.864 12.2381 13.0358 12.0449 13.2227 11.8626C13.4915 11.5952 13.7303 11.3038 13.9392 10.9884C14.1481 10.673 14.2526 10.3211 14.2526 9.9329C14.2526 9.36153 14.0359 8.89013 13.6027 8.51869C13.1694 8.14725 12.6611 7.96153 12.0778 7.96153C11.645 7.96153 11.2424 8.06274 10.87 8.26517C10.4975 8.46759 10.1996 8.74779 9.97628 9.10577C9.92543 9.19152 9.90914 9.28023 9.92742 9.37191C9.94569 9.46357 9.99506 9.53317 10.0755 9.5807C10.1779 9.63502 10.2814 9.64771 10.3861 9.61879C10.4908 9.58989 10.5831 9.52956 10.6628 9.43782C10.8353 9.22343 11.0385 9.04444 11.2723 8.90085C11.5062 8.75726 11.7648 8.68546 12.0482 8.68546Z" fill="white"/>
</svg>
