<svg width="25" height="25" viewBox="0 0 25 25" fill="none" xmlns="http://www.w3.org/2000/svg">
<path d="M6.57225 18.9065H10.0184V13.5979H14.3261V18.9065H17.7722V10.7875L12.1722 6.69336L6.57225 10.7875V18.9065ZM6.57225 19.8086C6.32216 19.8086 6.10408 19.7187 5.91801 19.5388C5.73195 19.359 5.63892 19.1482 5.63892 18.9065V10.7875C5.63892 10.6461 5.67165 10.512 5.73713 10.3855C5.8026 10.2589 5.89311 10.1547 6.00866 10.0728L11.6087 5.9786C11.696 5.91614 11.7864 5.87219 11.88 5.84675C11.9735 5.82131 12.0709 5.80859 12.1722 5.80859C12.2736 5.80859 12.371 5.82131 12.4645 5.84675C12.5581 5.87219 12.6485 5.91614 12.7358 5.9786L18.3358 10.0728C18.4514 10.1547 18.5419 10.2589 18.6074 10.3855C18.6728 10.512 18.7056 10.6461 18.7056 10.7875V18.9065C18.7056 19.1482 18.6126 19.359 18.4265 19.5388C18.2404 19.7187 18.0223 19.8086 17.7722 19.8086H13.3928V14.5001H10.9517V19.8086H6.57225Z" fill="black"/>
</svg>
