<svg width="25" height="25" viewBox="0 0 25 25" fill="none" xmlns="http://www.w3.org/2000/svg">
<path d="M13.8889 9.87836C13.8889 9.8241 13.9043 9.76983 13.9352 9.71557C13.9662 9.66131 14.0048 9.61609 14.0512 9.57991C14.5306 9.30859 15.0448 9.10058 15.5938 8.95588C16.1427 8.81118 16.7033 8.73883 17.2755 8.73883C17.5693 8.73883 17.8438 8.75691 18.0989 8.79309C18.3541 8.82927 18.6208 8.88353 18.8992 8.95588C18.961 8.97397 19.0151 9.01014 19.0615 9.06441C19.1079 9.11867 19.1311 9.19102 19.1311 9.28146C19.1311 9.42616 19.0963 9.53017 19.0267 9.59348C18.9572 9.65678 18.8605 9.67035 18.7368 9.63418C18.5048 9.57991 18.269 9.54374 18.0293 9.52565C17.7896 9.50756 17.5383 9.49852 17.2755 9.49852C16.7497 9.49852 16.2355 9.5573 15.7329 9.67487C15.2304 9.79244 14.7548 9.95976 14.3064 10.1768C14.1827 10.2311 14.0822 10.2311 14.0048 10.1768C13.9275 10.1225 13.8889 10.0231 13.8889 9.87836ZM13.8889 15.7388C13.8889 15.6846 13.9043 15.6258 13.9352 15.5625C13.9662 15.4992 14.0048 15.4494 14.0512 15.4132C14.4997 15.1419 15.0139 14.9384 15.5938 14.8028C16.1737 14.6671 16.7342 14.5993 17.2755 14.5993C17.5693 14.5993 17.8438 14.6174 18.0989 14.6536C18.3541 14.6897 18.6208 14.744 18.8992 14.8163C18.961 14.8344 19.0151 14.8706 19.0615 14.9249C19.1079 14.9791 19.1311 15.0515 19.1311 15.1419C19.1311 15.2866 19.0963 15.3906 19.0267 15.4539C18.9572 15.5172 18.8605 15.5308 18.7368 15.4946C18.5048 15.4404 18.269 15.4042 18.0293 15.3861C17.7896 15.368 17.5383 15.359 17.2755 15.359C16.7651 15.359 16.2626 15.4223 15.7677 15.5489C15.2729 15.6755 14.8012 15.8564 14.3528 16.0915C14.2291 16.1639 14.1208 16.1639 14.028 16.0915C13.9352 16.0192 13.8889 15.9016 13.8889 15.7388ZM13.8889 12.8086C13.8889 12.7543 13.9043 12.6955 13.9352 12.6322C13.9662 12.5689 14.0048 12.5192 14.0512 12.483C14.5306 12.2117 15.0448 12.0082 15.5938 11.8725C16.1427 11.7369 16.7033 11.6691 17.2755 11.6691C17.5693 11.6691 17.8438 11.6871 18.0989 11.7233C18.3541 11.7595 18.6208 11.8138 18.8992 11.8861C18.961 11.9042 19.0151 11.9404 19.0615 11.9946C19.1079 12.0489 19.1311 12.1213 19.1311 12.2117C19.1311 12.3564 19.0963 12.4604 19.0267 12.5237C18.9572 12.587 18.8605 12.6006 18.7368 12.5644C18.5048 12.5101 18.269 12.474 18.0293 12.4559C17.7896 12.4378 17.5383 12.4287 17.2755 12.4287C16.7651 12.4287 16.2626 12.4921 15.7677 12.6187C15.2729 12.7453 14.8012 12.9262 14.3528 13.1613C14.2291 13.2337 14.1208 13.2337 14.028 13.1613C13.9352 13.089 13.8889 12.9714 13.8889 12.8086ZM7.06927 17.5295C7.90432 17.5295 8.71618 17.6426 9.50484 17.8687C10.2935 18.0948 11.0744 18.4701 11.8476 18.9946V8.35898C11.1672 7.76208 10.4095 7.31441 9.57443 7.01596C8.73937 6.71751 7.90432 6.56828 7.06927 6.56828C6.51257 6.56828 6.04479 6.59994 5.66592 6.66324C5.28705 6.72655 4.84247 6.85769 4.33216 7.05666C4.14659 7.12901 4.01515 7.23301 3.93783 7.36867C3.86051 7.50433 3.82185 7.65355 3.82185 7.81635V17.3125C3.82185 17.5657 3.89917 17.7511 4.05381 17.8687C4.20845 17.9862 4.37855 17.9998 4.56412 17.9094C4.84247 17.8008 5.1904 17.7104 5.60793 17.6381C6.02546 17.5657 6.51257 17.5295 7.06927 17.5295ZM12.4971 18.9946C13.2703 18.4701 14.0512 18.0948 14.8399 17.8687C15.6285 17.6426 16.4404 17.5295 17.2755 17.5295C17.8322 17.5295 18.3193 17.5657 18.7368 17.6381C19.1543 17.7104 19.5023 17.8008 19.7806 17.9094C19.9662 17.9998 20.1363 17.9862 20.2909 17.8687C20.4456 17.7511 20.5229 17.5657 20.5229 17.3125V7.81635C20.5229 7.65355 20.4842 7.50885 20.4069 7.38224C20.3296 7.25562 20.1981 7.14709 20.0126 7.05666C19.5023 6.85769 19.0577 6.72655 18.6788 6.66324C18.2999 6.59994 17.8322 6.56828 17.2755 6.56828C16.4404 6.56828 15.6054 6.71751 14.7703 7.01596C13.9352 7.31441 13.1775 7.76208 12.4971 8.35898V18.9946ZM12.1724 19.8086C12.0487 19.8086 11.9365 19.7905 11.836 19.7543C11.7355 19.7182 11.6389 19.6729 11.5461 19.6187C10.8502 19.1846 10.1273 18.8545 9.37726 18.6284C8.62726 18.4023 7.85793 18.2892 7.06927 18.2892C6.63628 18.2892 6.21102 18.3209 5.7935 18.3842C5.37597 18.4475 4.96618 18.5605 4.56412 18.7233C4.22391 18.868 3.9069 18.8092 3.61308 18.547C3.31927 18.2847 3.17236 17.9275 3.17236 17.4753V7.76208C3.17236 7.47268 3.23808 7.20588 3.36953 6.96169C3.50097 6.71751 3.68267 6.5502 3.91463 6.45976C4.40948 6.22461 4.92365 6.0573 5.45716 5.95782C5.99066 5.85834 6.52803 5.80859 7.06927 5.80859C7.98164 5.80859 8.87082 5.96686 9.7368 6.2834C10.6028 6.59994 11.4146 7.05666 12.1724 7.65356C12.9301 7.05666 13.742 6.59994 14.6079 6.2834C15.4739 5.96686 16.3631 5.80859 17.2755 5.80859C17.8167 5.80859 18.3541 5.85834 18.8876 5.95782C19.4211 6.0573 19.9352 6.22461 20.4301 6.45976C20.6621 6.5502 20.8438 6.71751 20.9752 6.96169C21.1066 7.20588 21.1724 7.47268 21.1724 7.76208V17.4753C21.1724 17.9275 21.01 18.2756 20.6852 18.5198C20.3605 18.764 20.0126 18.8138 19.6414 18.6691C19.2548 18.5244 18.8644 18.4249 18.47 18.3706C18.0757 18.3163 17.6775 18.2892 17.2755 18.2892C16.4868 18.2892 15.7175 18.4023 14.9675 18.6284C14.2175 18.8545 13.4945 19.1846 12.7987 19.6187C12.7059 19.6729 12.6092 19.7182 12.5087 19.7543C12.4082 19.7905 12.2961 19.8086 12.1724 19.8086Z" fill="black"/>
</svg>
