<svg width="25" height="25" viewBox="0 0 25 25" fill="none" xmlns="http://www.w3.org/2000/svg">
<path d="M12.1723 12.1574C11.2994 12.1574 10.5521 11.8466 9.93041 11.225C9.30876 10.6033 8.99793 9.85599 8.99793 8.98303C8.99793 8.11005 9.30876 7.36273 9.93041 6.74108C10.5521 6.11942 11.2994 5.80859 12.1723 5.80859C13.0453 5.80859 13.7926 6.11942 14.4143 6.74108C15.0359 7.36273 15.3468 8.11005 15.3468 8.98303C15.3468 9.85599 15.0359 10.6033 14.4143 11.225C13.7926 11.8466 13.0453 12.1574 12.1723 12.1574ZM18.4805 19.8086H5.8642C5.55355 19.8086 5.29275 19.7031 5.08179 19.4922C4.87085 19.2812 4.76538 19.0204 4.76538 18.7097V18.0667C4.76538 17.6299 4.89256 17.2212 5.14692 16.8407C5.40128 16.4602 5.74348 16.1648 6.17352 15.9545C7.17196 15.4756 8.17108 15.1165 9.17088 14.877C10.1707 14.6376 11.1712 14.5179 12.1723 14.5179C13.1735 14.5179 14.174 14.6376 15.1738 14.877C16.1736 15.1165 17.1727 15.4756 18.1712 15.9545C18.6012 16.1648 18.9434 16.4602 19.1978 16.8407C19.4521 17.2212 19.5793 17.6299 19.5793 18.0667V18.7097C19.5793 19.0204 19.4738 19.2812 19.2629 19.4922C19.0519 19.7031 18.7911 19.8086 18.4805 19.8086ZM5.82352 18.7504H18.5212V18.0667C18.5212 17.832 18.4455 17.6116 18.2943 17.4054C18.143 17.1992 17.9338 17.0249 17.6665 16.8824C16.7956 16.4605 15.8976 16.1373 14.9726 15.9128C14.0476 15.6883 13.1142 15.576 12.1723 15.576C11.2305 15.576 10.2971 15.6883 9.37209 15.9128C8.44706 16.1373 7.54909 16.4605 6.67818 16.8824C6.41093 17.0249 6.20167 17.1992 6.05041 17.4054C5.89915 17.6116 5.82352 17.832 5.82352 18.0667V18.7504ZM12.1723 11.0993C12.7543 11.0993 13.2525 10.8921 13.667 10.4776C14.0814 10.0632 14.2886 9.56501 14.2886 8.98303C14.2886 8.40106 14.0814 7.90285 13.667 7.48841C13.2525 7.07398 12.7543 6.86676 12.1723 6.86676C11.5904 6.86676 11.0922 7.07398 10.6777 7.48841C10.2633 7.90285 10.0561 8.40106 10.0561 8.98303C10.0561 9.56501 10.2633 10.0632 10.6777 10.4776C11.0922 10.8921 11.5904 11.0993 12.1723 11.0993Z" fill="white"/>
</svg>
