<svg width="14" height="14" viewBox="0 0 14 14" fill="none" xmlns="http://www.w3.org/2000/svg">
<path d="M13.2453 13.862L8.13869 8.75355C7.70649 9.12159 7.20946 9.4065 6.64759 9.60827C6.08573 9.81003 5.5211 9.91092 4.95369 9.91092C3.56921 9.91092 2.39748 9.43151 1.43849 8.47271C0.479498 7.5139 0 6.34239 0 4.95816C0 3.57393 0.479231 2.40152 1.43769 1.44091C2.39616 0.480303 3.56726 0 4.95099 0C6.33474 0 7.50674 0.479662 8.46699 1.43899C9.42725 2.39831 9.90738 3.57047 9.90738 4.95546C9.90738 5.55632 9.801 6.13778 9.58822 6.69984C9.37545 7.2619 9.09619 7.74248 8.75042 8.14159L13.8787 13.2716C13.9596 13.3479 14 13.4416 14 13.5525C14 13.6635 13.9511 13.7678 13.8534 13.8656C13.7639 13.9552 13.6631 14 13.5512 14C13.4392 14 13.3373 13.954 13.2453 13.862ZM4.95369 9.04621C6.10069 9.04621 7.06899 8.65126 7.85858 7.86138C8.64818 7.0715 9.04298 6.10286 9.04298 4.95546C9.04298 3.80806 8.64818 2.83942 7.85858 2.04954C7.06899 1.25965 6.10069 0.86471 4.95369 0.86471C3.8067 0.86471 2.83841 1.25965 2.0488 2.04954C1.25922 2.83942 0.864423 3.80806 0.864423 4.95546C0.864423 6.10286 1.25922 7.0715 2.0488 7.86138C2.83841 8.65126 3.8067 9.04621 4.95369 9.04621Z" fill="black"/>
</svg>
