<svg width="25" height="25" viewBox="0 0 25 25" fill="none" xmlns="http://www.w3.org/2000/svg">
<path d="M13.3908 19.5857C13.2412 19.7343 13.0559 19.8086 12.8347 19.8086C12.6136 19.8086 12.4287 19.7343 12.28 19.5857L5.42985 12.739C5.34701 12.6562 5.28339 12.5653 5.23898 12.4663C5.19457 12.3673 5.17236 12.2617 5.17236 12.1495V6.58662C5.17236 6.37815 5.24995 6.19636 5.40513 6.04124C5.56033 5.88614 5.74221 5.80859 5.95079 5.80859H11.5166C11.6174 5.80859 11.7176 5.82912 11.8173 5.87017C11.9169 5.91124 12.0033 5.96652 12.0764 6.03601L18.9266 12.8871C19.0853 13.0457 19.1671 13.2375 19.1721 13.4624C19.1771 13.6874 19.1052 13.8741 18.9566 14.0228L13.3908 19.5857ZM12.8287 19.0351L18.4012 13.4722L11.5233 6.58662H5.95079V12.1495L12.8287 19.0351ZM7.89511 9.30972C8.11086 9.30972 8.29482 9.23425 8.447 9.08331C8.5992 8.93236 8.67529 8.74908 8.67529 8.53346C8.67529 8.31782 8.59979 8.13394 8.44877 7.98184C8.29776 7.82972 8.11437 7.75366 7.89862 7.75366C7.68288 7.75366 7.49891 7.82913 7.34673 7.98007C7.19453 8.13102 7.11844 8.3143 7.11844 8.52992C7.11844 8.74556 7.19394 8.92944 7.34496 9.08154C7.49597 9.23366 7.67936 9.30972 7.89511 9.30972Z" fill="black"/>
</svg>
