<svg width="25" height="25" viewBox="0 0 25 25" fill="none" xmlns="http://www.w3.org/2000/svg">
<path d="M9.39507 20.2136C9.05949 20.2136 8.7767 20.0986 8.5467 19.8686C8.31668 19.6386 8.20167 19.3558 8.20167 19.0202C8.20167 18.6847 8.31668 18.4019 8.5467 18.1719C8.7767 17.9419 9.05949 17.8268 9.39507 17.8268C9.73063 17.8268 10.0134 17.9419 10.2434 18.1719C10.4734 18.4019 10.5884 18.6847 10.5884 19.0202C10.5884 19.3558 10.4734 19.6386 10.2434 19.8686C10.0134 20.0986 9.73063 20.2136 9.39507 20.2136ZM16.8613 20.2136C16.5257 20.2136 16.2429 20.0986 16.0129 19.8686C15.7829 19.6386 15.6679 19.3558 15.6679 19.0202C15.6679 18.6847 15.7829 18.4019 16.0129 18.1719C16.2429 17.9419 16.5257 17.8268 16.8613 17.8268C17.1968 17.8268 17.4796 17.9419 17.7096 18.1719C17.9397 18.4019 18.0547 18.6847 18.0547 19.0202C18.0547 19.3558 17.9397 19.6386 17.7096 19.8686C17.4796 20.0986 17.1968 20.2136 16.8613 20.2136ZM8.25983 7.79031L10.3834 12.2578H15.9525L18.1709 8.21869C18.2321 8.1065 18.2372 8.00705 18.1862 7.92036C18.1352 7.83366 18.0485 7.79031 17.9261 7.79031H8.25983ZM9.39507 16.2357C8.93098 16.2357 8.58469 16.0401 8.35622 15.649C8.12774 15.2578 8.12213 14.8648 8.33939 14.4701L9.5358 12.3373L6.61051 6.19914H5.55026C5.44724 6.19914 5.3585 6.16115 5.28404 6.08516C5.20959 6.00918 5.17236 5.91458 5.17236 5.80135C5.17236 5.68813 5.21035 5.59353 5.28633 5.51755C5.36233 5.44156 5.45694 5.40356 5.57015 5.40356H6.70998C6.83543 5.40356 6.94915 5.43569 7.05115 5.49995C7.15315 5.56421 7.23221 5.65397 7.28831 5.76923L7.87121 6.99473H18.2291C18.6075 6.99473 18.8808 7.13242 19.0491 7.40781C19.2174 7.6832 19.2133 7.97696 19.0369 8.28907L16.7634 12.4322C16.6481 12.6362 16.4992 12.7907 16.3166 12.8958C16.134 13.0009 15.9311 13.0534 15.7077 13.0534H10.0254L9.05848 14.8281C8.97688 14.9505 8.97432 15.0831 9.05082 15.2259C9.12731 15.3687 9.24206 15.4401 9.39507 15.4401H17.6767C17.7798 15.4401 17.8685 15.4781 17.943 15.5541C18.0174 15.6301 18.0547 15.7247 18.0547 15.8379C18.0547 15.9511 18.0167 16.0457 17.9407 16.1217C17.8647 16.1977 17.7701 16.2357 17.6568 16.2357H9.39507Z" fill="white"/>
</svg>
