<svg width="25" height="25" viewBox="0 0 25 25" fill="none" xmlns="http://www.w3.org/2000/svg">
<path d="M6.50263 19.8086C6.1236 19.8086 5.80713 19.6816 5.55321 19.4277C5.29928 19.1738 5.17232 18.8573 5.17232 18.4783V11.8679C4.82496 11.6113 4.57077 11.275 4.40976 10.8591C4.24876 10.4431 4.24533 9.99909 4.39946 9.52714L5.20082 6.88552C5.31062 6.54977 5.48774 6.28634 5.73216 6.09524C5.97658 5.90414 6.2788 5.80859 6.63882 5.80859H17.6741C18.0342 5.80859 18.3356 5.89807 18.5784 6.07702C18.8213 6.25599 18.9992 6.51493 19.1121 6.85384L19.9452 9.52714C20.0993 9.99909 20.0959 10.4468 19.9349 10.8701C19.7739 11.2935 19.5197 11.6366 19.1723 11.8995V18.4783C19.1723 18.8573 19.0454 19.1738 18.7914 19.4277C18.5375 19.6816 18.221 19.8086 17.842 19.8086H6.50263ZM13.9841 11.5733C14.513 11.5733 14.9079 11.4252 15.1687 11.1291C15.4295 10.8329 15.5393 10.527 15.4981 10.2113L14.9502 6.63212H12.5841V10.0909C12.5841 10.4953 12.7224 10.8435 12.999 11.1354C13.2756 11.4273 13.604 11.5733 13.9841 11.5733ZM10.2782 11.5733C10.7206 11.5733 11.0782 11.4273 11.3512 11.1354C11.6241 10.8435 11.7606 10.4953 11.7606 10.0909V6.63212H9.3945L8.84652 10.2747C8.81274 10.5302 8.9244 10.8105 9.18149 11.1156C9.43857 11.4207 9.80414 11.5733 10.2782 11.5733ZM6.6135 11.5733C6.97669 11.5733 7.28525 11.4498 7.53917 11.2027C7.79309 10.9557 7.9512 10.6474 8.0135 10.2778L8.52979 6.63212H6.63882C6.45935 6.63212 6.31682 6.67171 6.21123 6.7509C6.10565 6.83009 6.02647 6.94887 5.97368 7.10724L5.2135 9.7077C5.07836 10.1406 5.13616 10.5597 5.38692 10.9651C5.63767 11.3706 6.04653 11.5733 6.6135 11.5733ZM17.7311 11.5733C18.2242 11.5733 18.618 11.3811 18.9126 10.9968C19.2072 10.6125 19.28 10.1828 19.1311 9.7077L18.3298 7.07555C18.277 6.91719 18.1978 6.80369 18.0922 6.73506C17.9866 6.66644 17.8441 6.63212 17.6646 6.63212H15.8149L16.3311 10.2778C16.3934 10.6474 16.5515 10.9557 16.8055 11.2027C17.0594 11.4498 17.3679 11.5733 17.7311 11.5733ZM6.50263 18.9851H17.842C17.9898 18.9851 18.1112 18.9376 18.2063 18.8425C18.3013 18.7475 18.3488 18.6261 18.3488 18.4783V12.2923C18.2379 12.3303 18.1326 12.3572 18.0328 12.3731C17.9331 12.3889 17.8325 12.3968 17.7311 12.3968C17.3606 12.3968 17.0346 12.3245 16.7532 12.1799C16.4718 12.0352 16.2044 11.8045 15.951 11.4878C15.7357 11.756 15.4701 11.9745 15.1544 12.1434C14.8388 12.3124 14.455 12.3968 14.0031 12.3968C13.6747 12.3968 13.3625 12.3203 13.0663 12.1672C12.7702 12.0141 12.4722 11.7876 12.1723 11.4878C11.8968 11.7876 11.5914 12.0141 11.2561 12.1672C10.9209 12.3203 10.6013 12.3968 10.2972 12.3968C9.95196 12.3968 9.61542 12.3308 9.28758 12.1989C8.95976 12.0669 8.67232 11.8299 8.42526 11.4878C8.02088 11.8922 7.66745 12.1448 7.36497 12.2456C7.06248 12.3464 6.81199 12.3968 6.6135 12.3968C6.51214 12.3968 6.40999 12.3889 6.30704 12.3731C6.2041 12.3572 6.10037 12.3303 5.99585 12.2923V18.4783C5.99585 18.6261 6.04336 18.7475 6.13839 18.8425C6.23341 18.9376 6.35482 18.9851 6.50263 18.9851Z" fill="black"/>
</svg>
