<svg width="25" height="25" viewBox="0 0 25 25" fill="none" xmlns="http://www.w3.org/2000/svg">
<path d="M18.3628 5.80859H7.83903C7.26439 5.80859 6.71329 6.01509 6.30697 6.38266C5.90064 6.75024 5.67236 7.24877 5.67236 7.76859V19.5286C5.67236 19.6029 5.70497 19.6741 5.76302 19.7266C5.82107 19.7791 5.8998 19.8086 5.98189 19.8086H17.1247C17.2068 19.8086 17.2856 19.7791 17.3436 19.7266C17.4017 19.6741 17.4343 19.6029 17.4343 19.5286C17.4343 19.4543 17.4017 19.3831 17.3436 19.3306C17.2856 19.2781 17.2068 19.2486 17.1247 19.2486H6.29141V18.9686C6.29141 18.5973 6.45446 18.2412 6.7447 17.9786C7.03493 17.7161 7.42858 17.5686 7.83903 17.5686H18.3628C18.4449 17.5686 18.5237 17.5391 18.5817 17.4866C18.6398 17.4341 18.6724 17.3629 18.6724 17.2886V6.08859C18.6724 6.01433 18.6398 5.94311 18.5817 5.8906C18.5237 5.83809 18.4449 5.80859 18.3628 5.80859ZM18.0533 17.0086H7.83903C7.55065 17.0085 7.26517 17.0606 6.99938 17.1618C6.7336 17.263 6.49288 17.4113 6.29141 17.598V7.76859C6.29141 7.39729 6.45446 7.0412 6.7447 6.77864C7.03493 6.51609 7.42858 6.36859 7.83903 6.36859H18.0533V17.0086Z" fill="black"/>
<path d="M13.5057 11.0586H12.9501V9.05859H13.2279C13.5226 9.05859 13.8052 9.16395 14.0136 9.35149C14.222 9.53902 14.339 9.79338 14.339 10.0586C14.339 10.1249 14.3683 10.1885 14.4204 10.2354C14.4725 10.2823 14.5431 10.3086 14.6168 10.3086C14.6905 10.3086 14.7611 10.2823 14.8132 10.2354C14.8653 10.1885 14.8946 10.1249 14.8946 10.0586C14.8941 9.6609 14.7184 9.27961 14.4059 8.99839C14.0935 8.71718 13.6698 8.55901 13.2279 8.55859H12.9501V8.05859C12.9501 7.99229 12.9209 7.9287 12.8688 7.88182C12.8167 7.83493 12.746 7.80859 12.6724 7.80859C12.5987 7.80859 12.528 7.83493 12.4759 7.88182C12.4239 7.9287 12.3946 7.99229 12.3946 8.05859V8.55859H12.1168C11.6748 8.55859 11.2509 8.71663 10.9383 8.99793C10.6257 9.27924 10.4501 9.66077 10.4501 10.0586C10.4501 10.4564 10.6257 10.8379 10.9383 11.1193C11.2509 11.4006 11.6748 11.5586 12.1168 11.5586H12.3946V13.5586H11.839C11.5443 13.5586 11.2617 13.4532 11.0534 13.2657C10.845 13.0782 10.7279 12.8238 10.7279 12.5586C10.7279 12.4923 10.6987 12.4287 10.6466 12.3818C10.5945 12.3349 10.5238 12.3086 10.4501 12.3086C10.3765 12.3086 10.3058 12.3349 10.2537 12.3818C10.2016 12.4287 10.1724 12.4923 10.1724 12.5586C10.1728 12.9563 10.3486 13.3376 10.661 13.6188C10.9735 13.9 11.3971 14.0582 11.839 14.0586H12.3946V14.5586C12.3946 14.6249 12.4239 14.6885 12.4759 14.7354C12.528 14.7823 12.5987 14.8086 12.6724 14.8086C12.746 14.8086 12.8167 14.7823 12.8688 14.7354C12.9209 14.6885 12.9501 14.6249 12.9501 14.5586V14.0586H13.5057C13.9477 14.0586 14.3716 13.9006 14.6842 13.6193C14.9968 13.3379 15.1724 12.9564 15.1724 12.5586C15.1724 12.1608 14.9968 11.7792 14.6842 11.4979C14.3716 11.2166 13.9477 11.0586 13.5057 11.0586ZM12.1168 11.0586C11.8221 11.0586 11.5395 10.9532 11.3311 10.7657C11.1228 10.5782 11.0057 10.3238 11.0057 10.0586C11.0057 9.79338 11.1228 9.53902 11.3311 9.35149C11.5395 9.16395 11.8221 9.05859 12.1168 9.05859H12.3946V11.0586H12.1168ZM13.5057 13.5586H12.9501V11.5586H13.5057C13.8004 11.5586 14.083 11.664 14.2914 11.8515C14.4997 12.039 14.6168 12.2934 14.6168 12.5586C14.6168 12.8238 14.4997 13.0782 14.2914 13.2657C14.083 13.4532 13.8004 13.5586 13.5057 13.5586Z" fill="black"/>
</svg>
