<svg width="52" height="52" viewBox="0 0 52 52" fill="none" xmlns="http://www.w3.org/2000/svg">
<g filter="url(#filter0_d_890_4802)">
<rect x="6" y="5" width="40" height="40" rx="20" fill="white" shape-rendering="crispEdges"/>
<path d="M28.948 31.4878L28.9479 31.4877L23.0186 25.1068C23.0186 25.1068 23.0186 25.1068 23.0186 25.1068C23.0185 25.1067 23.0185 25.1067 23.0185 25.1067C22.9913 25.0773 22.9881 25.0645 22.9901 25.07C22.9863 25.0593 22.9814 25.04 22.9814 25.0075C22.9814 24.9758 22.986 24.9567 22.9898 24.9459C22.9909 24.9436 22.9976 24.9308 23.0186 24.9082L23.0186 24.9082L28.9619 18.5077C28.9621 18.5075 28.9622 18.5073 28.9624 18.5071C28.9678 18.5118 28.9747 18.5182 28.983 18.5271C29.0017 18.5473 29.009 18.562 29.009 18.598C29.009 18.6341 29.0017 18.6488 28.983 18.669L23.4131 24.6673L23.0972 25.0075L23.4131 25.3477L28.9968 31.361C29.0097 31.3748 29.0134 31.3832 29.0148 31.3865C29.016 31.3897 29.0187 31.3976 29.0187 31.4147L29.0187 31.4156C29.0188 31.4247 29.0189 31.4447 28.9788 31.4878C28.9726 31.4945 28.9683 31.4981 28.9659 31.5C28.9652 31.5 28.9644 31.5 28.9634 31.5C28.9624 31.5 28.9616 31.5 28.9609 31.5C28.9585 31.4981 28.9541 31.4945 28.948 31.4878Z" fill="black" stroke="black"/>
</g>
<defs>
<filter id="filter0_d_890_4802" x="0" y="0" width="52" height="52" filterUnits="userSpaceOnUse" color-interpolation-filters="sRGB">
<feFlood flood-opacity="0" result="BackgroundImageFix"/>
<feColorMatrix in="SourceAlpha" type="matrix" values="0 0 0 0 0 0 0 0 0 0 0 0 0 0 0 0 0 0 127 0" result="hardAlpha"/>
<feOffset dy="1"/>
<feGaussianBlur stdDeviation="3"/>
<feComposite in2="hardAlpha" operator="out"/>
<feColorMatrix type="matrix" values="0 0 0 0 0 0 0 0 0 0 0 0 0 0 0 0 0 0 0.15 0"/>
<feBlend mode="normal" in2="BackgroundImageFix" result="effect1_dropShadow_890_4802"/>
<feBlend mode="normal" in="SourceGraphic" in2="effect1_dropShadow_890_4802" result="shape"/>
</filter>
</defs>
</svg>
