<svg width="52" height="52" viewBox="0 0 52 52" fill="none" xmlns="http://www.w3.org/2000/svg">
<g filter="url(#filter0_d_890_4800)">
<rect x="46" y="45" width="40" height="40" rx="20" transform="rotate(-180 46 45)" fill="white" shape-rendering="crispEdges"/>
<mask id="path-2-inside-1_890_4800" fill="white">
<path d="M23.4184 18.1719L29.3478 24.553C29.4107 24.6207 29.4549 24.69 29.4804 24.7608C29.5058 24.8315 29.5186 24.9088 29.5186 24.9925C29.5186 25.0762 29.5058 25.1535 29.4804 25.2243C29.4549 25.295 29.4107 25.3643 29.3478 25.4321L23.4045 31.8325C23.3008 31.9442 23.1782 32 23.0366 32C22.895 32 22.7663 31.9377 22.6506 31.8131C22.5442 31.6985 22.491 31.5614 22.491 31.4019C22.491 31.2425 22.5442 31.1054 22.6506 30.9908L28.2205 24.9925L22.6368 18.9793C22.5331 18.8676 22.4813 18.7363 22.4813 18.5853C22.4813 18.4343 22.5391 18.2965 22.6548 18.1719C22.7613 18.0573 22.8885 18 23.0366 18C23.1847 18 23.312 18.0573 23.4184 18.1719Z"/>
</mask>
<path d="M23.4184 18.1719L29.3478 24.553C29.4107 24.6207 29.4549 24.69 29.4804 24.7608C29.5058 24.8315 29.5186 24.9088 29.5186 24.9925C29.5186 25.0762 29.5058 25.1535 29.4804 25.2243C29.4549 25.295 29.4107 25.3643 29.3478 25.4321L23.4045 31.8325C23.3008 31.9442 23.1782 32 23.0366 32C22.895 32 22.7663 31.9377 22.6506 31.8131C22.5442 31.6985 22.491 31.5614 22.491 31.4019C22.491 31.2425 22.5442 31.1054 22.6506 30.9908L28.2205 24.9925L22.6368 18.9793C22.5331 18.8676 22.4813 18.7363 22.4813 18.5853C22.4813 18.4343 22.5391 18.2965 22.6548 18.1719C22.7613 18.0573 22.8885 18 23.0366 18C23.1847 18 23.312 18.0573 23.4184 18.1719Z" fill="black"/>
<path d="M23.4184 18.1719L22.6856 18.8524L22.6858 18.8526L23.4184 18.1719ZM29.3478 24.553L30.0805 23.8724L30.0803 23.8723L29.3478 24.553ZM29.4804 24.7608L30.4214 24.4224L30.4214 24.4223L29.4804 24.7608ZM29.4804 25.2243L30.4214 25.5627L30.4214 25.5627L29.4804 25.2243ZM29.3478 25.4321L28.6151 24.7515L28.615 24.7516L29.3478 25.4321ZM23.4045 31.8325L24.1373 32.513L24.1373 32.513L23.4045 31.8325ZM22.6506 30.9908L21.9179 30.3103L21.9179 30.3103L22.6506 30.9908ZM28.2205 24.9925L28.9533 25.673L29.5851 24.9925L28.9533 24.3121L28.2205 24.9925ZM22.6368 18.9793L23.3696 18.2988L22.6368 18.9793ZM22.6858 18.8526L28.6152 25.2337L30.0803 23.8723L24.1509 17.4912L22.6858 18.8526ZM28.6151 25.2335C28.6067 25.2245 28.5688 25.1809 28.5394 25.0993L30.4214 24.4223C30.3411 24.1991 30.2147 24.017 30.0805 23.8724L28.6151 25.2335ZM28.5394 25.0992C28.5216 25.0498 28.5186 25.0111 28.5186 24.9925L30.5186 24.9925C30.5186 24.8064 30.49 24.6133 30.4214 24.4224L28.5394 25.0992ZM28.5186 24.9925C28.5186 24.9739 28.5216 24.9352 28.5394 24.8858L30.4214 25.5627C30.49 25.3717 30.5186 25.1786 30.5186 24.9925L28.5186 24.9925ZM28.5394 24.8858C28.5688 24.8041 28.6067 24.7605 28.6151 24.7515L30.0805 26.1126C30.2147 25.9681 30.3411 25.786 30.4214 25.5627L28.5394 24.8858ZM28.615 24.7516L22.6717 31.1521L24.1373 32.513L30.0806 26.1125L28.615 24.7516ZM22.6717 31.1521C22.6981 31.1237 22.7468 31.0815 22.8205 31.048C22.8959 31.0137 22.9719 31 23.0366 31L23.0366 33C23.479 33 23.8605 32.8111 24.1373 32.513L22.6717 31.1521ZM23.0366 31C23.1182 31 23.1995 31.0192 23.2697 31.0532C23.3362 31.0854 23.3725 31.1208 23.3834 31.1327L21.9179 32.4936C22.1816 32.7776 22.5617 33 23.0366 33L23.0366 31ZM23.3834 31.1327C23.4107 31.162 23.4411 31.2057 23.4631 31.2624C23.485 31.3187 23.491 31.3684 23.491 31.4019L21.491 31.4019C21.491 31.8084 21.636 32.19 21.9179 32.4936L23.3834 31.1327ZM23.491 31.4019C23.491 31.4355 23.485 31.4852 23.4631 31.5415C23.4411 31.5982 23.4107 31.6419 23.3834 31.6712L21.9179 30.3103C21.636 30.6139 21.491 30.9955 21.491 31.4019L23.491 31.4019ZM23.3834 31.6712L28.9533 25.673L27.4877 24.3121L21.9179 30.3103L23.3834 31.6712ZM28.9533 24.3121L23.3696 18.2988L21.904 19.6597L27.4877 25.673L28.9533 24.3121ZM23.3696 18.2988C23.3957 18.327 23.427 18.3709 23.4503 18.4299C23.4737 18.4891 23.4813 18.544 23.4813 18.5853L21.4813 18.5853C21.4813 18.9912 21.6302 19.3649 21.904 19.6597L23.3696 18.2988ZM23.4813 18.5853C23.4813 18.6413 23.4698 18.7008 23.4467 18.7558C23.4245 18.8088 23.3987 18.8404 23.3876 18.8524L21.922 17.4915C21.6579 17.7759 21.4813 18.1496 21.4813 18.5853L23.4813 18.5853ZM23.3876 18.8524C23.3609 18.8811 23.3127 18.9224 23.2407 18.9548C23.1675 18.9878 23.0953 19 23.0366 19L23.0366 17C22.5933 17 22.2057 17.186 21.922 17.4915L23.3876 18.8524ZM23.0366 19C22.9779 19 22.9057 18.9878 22.8325 18.9548C22.7605 18.9224 22.7123 18.8811 22.6856 18.8524L24.1512 17.4915C23.8675 17.186 23.4799 17 23.0366 17L23.0366 19Z" fill="black" mask="url(#path-2-inside-1_890_4800)"/>
</g>
<defs>
<filter id="filter0_d_890_4800" x="0" y="0" width="52" height="52" filterUnits="userSpaceOnUse" color-interpolation-filters="sRGB">
<feFlood flood-opacity="0" result="BackgroundImageFix"/>
<feColorMatrix in="SourceAlpha" type="matrix" values="0 0 0 0 0 0 0 0 0 0 0 0 0 0 0 0 0 0 127 0" result="hardAlpha"/>
<feOffset dy="1"/>
<feGaussianBlur stdDeviation="3"/>
<feComposite in2="hardAlpha" operator="out"/>
<feColorMatrix type="matrix" values="0 0 0 0 0 0 0 0 0 0 0 0 0 0 0 0 0 0 0.15 0"/>
<feBlend mode="normal" in2="BackgroundImageFix" result="effect1_dropShadow_890_4800"/>
<feBlend mode="normal" in="SourceGraphic" in2="effect1_dropShadow_890_4800" result="shape"/>
</filter>
</defs>
</svg>
