<svg width="14" height="16" viewBox="0 0 14 16" fill="none" xmlns="http://www.w3.org/2000/svg">
<path d="M4.2227 15.1418C3.88713 15.1418 3.60434 15.0268 3.37433 14.7968C3.14432 14.5668 3.02931 14.284 3.02931 13.9484C3.02931 13.6129 3.14432 13.3301 3.37433 13.1001C3.60434 12.8701 3.88713 12.7551 4.2227 12.7551C4.55826 12.7551 4.84105 12.8701 5.07107 13.1001C5.30107 13.3301 5.41607 13.6129 5.41607 13.9484C5.41607 14.284 5.30107 14.5668 5.07107 14.7968C4.84105 15.0268 4.55826 15.1418 4.2227 15.1418ZM11.6889 15.1418C11.3533 15.1418 11.0706 15.0268 10.8405 14.7968C10.6105 14.5668 10.4955 14.284 10.4955 13.9484C10.4955 13.6129 10.6105 13.3301 10.8405 13.1001C11.0706 12.8701 11.3533 12.7551 11.6889 12.7551C12.0245 12.7551 12.3073 12.8701 12.5373 13.1001C12.7673 13.3301 12.8823 13.6129 12.8823 13.9484C12.8823 14.284 12.7673 14.5668 12.5373 14.7968C12.3073 15.0268 12.0245 15.1418 11.6889 15.1418ZM3.08747 2.71853L5.21105 7.18601H10.7801L12.9986 3.14691C13.0598 3.03472 13.0649 2.93528 13.0139 2.84859C12.9629 2.76188 12.8762 2.71853 12.7538 2.71853H3.08747ZM4.2227 11.1639C3.75861 11.1639 3.41233 10.9684 3.18385 10.5772C2.95538 10.186 2.94977 9.79307 3.16703 9.39834L4.36344 7.26557L1.43815 1.12737H0.377901C0.274873 1.12737 0.186133 1.08937 0.11168 1.01338C0.0372265 0.937403 0 0.842802 0 0.729577C0 0.616353 0.037989 0.521752 0.113967 0.445774C0.189971 0.369783 0.284579 0.331787 0.39779 0.331787H1.53762C1.66307 0.331787 1.77679 0.363915 1.87878 0.428172C1.98079 0.492428 2.05984 0.582189 2.11595 0.697456L2.69885 1.92295H13.0567C13.4351 1.92295 13.7085 2.06064 13.8768 2.33603C14.0451 2.61142 14.041 2.90518 13.8645 3.2173L11.591 7.36044C11.4757 7.56443 11.3268 7.71896 11.1443 7.82403C10.9617 7.92908 10.7587 7.98161 10.5353 7.98161H4.85304L3.88611 9.75635C3.80451 9.87875 3.80196 10.0113 3.87845 10.1541C3.95495 10.2969 4.0697 10.3683 4.2227 10.3683H12.5044C12.6074 10.3683 12.6961 10.4063 12.7706 10.4823C12.8451 10.5583 12.8823 10.6529 12.8823 10.7661C12.8823 10.8793 12.8443 10.974 12.7683 11.0499C12.6923 11.1259 12.5977 11.1639 12.4845 11.1639H4.2227Z" fill="black"/>
</svg>
