<svg width="119" height="18" viewBox="0 0 119 18" fill="none" xmlns="http://www.w3.org/2000/svg">
<path d="M18.4678 7.10466C18.4858 6.98346 18.4796 6.85991 18.4498 6.74108C18.42 6.62226 18.367 6.51049 18.294 6.41219C18.221 6.31388 18.1293 6.23096 18.0242 6.16818C17.9191 6.1054 17.8027 6.06399 17.6816 6.04632L12.4239 5.27679L10.0737 0.481671C9.98889 0.3351 9.86706 0.213442 9.72045 0.1289C9.57384 0.0443588 9.4076 -9.42274e-05 9.23842 1.49965e-07C9.06923 9.45273e-05 8.90305 0.044733 8.75653 0.129438C8.61002 0.214143 8.48832 0.335937 8.40365 0.482602L6.05438 5.27679L0.796658 6.04632C0.62504 6.07128 0.463805 6.14378 0.331147 6.25562C0.198489 6.36746 0.0996885 6.51421 0.0458945 6.67929C-0.00789938 6.84437 -0.0145457 7.02122 0.0267057 7.18989C0.0679572 7.35855 0.155464 7.51231 0.279352 7.63382L4.0875 11.3725L3.18873 16.6492C3.16032 16.8205 3.18017 16.9963 3.24605 17.1569C3.31193 17.3175 3.42123 17.4565 3.56167 17.5583C3.70211 17.6602 3.86812 17.7207 4.04105 17.7333C4.21398 17.7458 4.38698 17.7098 4.54061 17.6293L9.23915 15.1419L13.9368 17.6284C14.0902 17.7097 14.2633 17.7465 14.4365 17.7344C14.6097 17.7224 14.7761 17.6621 14.9168 17.5603C15.0576 17.4585 15.1671 17.3194 15.2329 17.1585C15.2988 16.9977 15.3184 16.8216 15.2896 16.6502L14.3908 11.3725L18.1999 7.63289C18.3442 7.4907 18.4383 7.30524 18.4678 7.10466Z" fill="#F5AD7C"/>
<path d="M43.5987 7.10466C43.6166 6.98346 43.6105 6.85991 43.5807 6.74108C43.5508 6.62226 43.4979 6.51049 43.4249 6.41219C43.3518 6.31388 43.2601 6.23096 43.1551 6.16818C43.05 6.1054 42.9336 6.06399 42.8125 6.04632L37.5548 5.27679L35.2046 0.481671C35.1198 0.3351 34.9979 0.213442 34.8513 0.1289C34.7047 0.0443588 34.5385 -9.42274e-05 34.3693 1.49965e-07C34.2001 9.45273e-05 34.0339 0.044733 33.8874 0.129438C33.7409 0.214143 33.6192 0.335937 33.5345 0.482602L31.1852 5.27679L25.9275 6.04632C25.7559 6.07128 25.5947 6.14378 25.462 6.25562C25.3293 6.36746 25.2305 6.51421 25.1768 6.67929C25.123 6.84437 25.1163 7.02122 25.1576 7.18989C25.1988 7.35855 25.2863 7.51231 25.4102 7.63382L29.2184 11.3725L28.3196 16.6492C28.2912 16.8205 28.311 16.9963 28.3769 17.1569C28.4428 17.3175 28.5521 17.4565 28.6925 17.5583C28.833 17.6602 28.999 17.7207 29.1719 17.7333C29.3448 17.7458 29.5178 17.7098 29.6715 17.6293L34.37 15.1419L39.0676 17.6284C39.2211 17.7097 39.3942 17.7465 39.5674 17.7344C39.7406 17.7224 39.9069 17.6621 40.0477 17.5603C40.1884 17.4585 40.2979 17.3194 40.3638 17.1585C40.4297 16.9977 40.4493 16.8216 40.4204 16.6502L39.5217 11.3725L43.3307 7.63289C43.4751 7.4907 43.5692 7.30524 43.5987 7.10466Z" fill="#F5AD7C"/>
<path d="M68.7286 7.10466C68.7465 6.98346 68.7404 6.85991 68.7105 6.74108C68.6807 6.62226 68.6278 6.51049 68.5547 6.41219C68.4817 6.31388 68.39 6.23096 68.285 6.16818C68.1799 6.1054 68.0635 6.06399 67.9424 6.04632L62.6847 5.27679L60.3345 0.481671C60.2496 0.3351 60.1278 0.213442 59.9812 0.1289C59.8346 0.0443588 59.6683 -9.42274e-05 59.4992 1.49965e-07C59.33 9.45273e-05 59.1638 0.044733 59.0173 0.129438C58.8708 0.214143 58.7491 0.335937 58.6644 0.482602L56.3151 5.27679L51.0574 6.04632C50.8858 6.07128 50.7245 6.14378 50.5919 6.25562C50.4592 6.36746 50.3604 6.51421 50.3066 6.67929C50.2528 6.84437 50.2462 7.02122 50.2874 7.18989C50.3287 7.35855 50.4162 7.51231 50.5401 7.63382L54.3482 11.3725L53.4495 16.6492C53.4211 16.8205 53.4409 16.9963 53.5068 17.1569C53.5727 17.3175 53.682 17.4565 53.8224 17.5583C53.9629 17.6602 54.1289 17.7207 54.3018 17.7333C54.4747 17.7458 54.6477 17.7098 54.8013 17.6293L59.4999 15.1419L64.1975 17.6284C64.3509 17.7097 64.524 17.7465 64.6972 17.7344C64.8704 17.7224 65.0368 17.6621 65.1776 17.5603C65.3183 17.4585 65.4278 17.3194 65.4937 17.1585C65.5596 16.9977 65.5792 16.8216 65.5503 16.6502L64.6515 11.3725L68.4606 7.63289C68.605 7.4907 68.699 7.30524 68.7286 7.10466Z" fill="#F5AD7C"/>
<path d="M93.8594 7.10466C93.8774 6.98346 93.8712 6.85991 93.8414 6.74108C93.8116 6.62226 93.7586 6.51049 93.6856 6.41219C93.6126 6.31388 93.5209 6.23096 93.4158 6.16818C93.3107 6.1054 93.1943 6.06399 93.0732 6.04632L87.8155 5.27679L85.4653 0.481671C85.3805 0.3351 85.2587 0.213442 85.112 0.1289C84.9654 0.0443588 84.7992 -9.42274e-05 84.63 1.49965e-07C84.4608 9.45273e-05 84.2947 0.044733 84.1481 0.129438C84.0016 0.214143 83.8799 0.335937 83.7952 0.482602L81.446 5.27679L76.1883 6.04632C76.0166 6.07128 75.8554 6.14378 75.7227 6.25562C75.5901 6.36746 75.4913 6.51421 75.4375 6.67929C75.3837 6.84437 75.3771 7.02122 75.4183 7.18989C75.4596 7.35855 75.5471 7.51231 75.671 7.63382L79.4791 11.3725L78.5803 16.6492C78.5519 16.8205 78.5718 16.9963 78.6376 17.1569C78.7035 17.3175 78.8128 17.4565 78.9533 17.5583C79.0937 17.6602 79.2597 17.7207 79.4327 17.7333C79.6056 17.7458 79.7786 17.7098 79.9322 17.6293L84.6308 15.1419L89.3284 17.6284C89.4818 17.7097 89.6549 17.7465 89.8281 17.7344C90.0013 17.7224 90.1677 17.6621 90.3084 17.5603C90.4492 17.4585 90.5587 17.3194 90.6245 17.1585C90.6904 16.9977 90.71 16.8216 90.6812 16.6502L89.7824 11.3725L93.5915 7.63289C93.7358 7.4907 93.8299 7.30524 93.8594 7.10466Z" fill="#F5AD7C"/>
<path d="M118.99 7.10466C119.008 6.98346 119.002 6.85991 118.972 6.74108C118.942 6.62226 118.889 6.51049 118.816 6.41219C118.743 6.31388 118.652 6.23096 118.547 6.16818C118.442 6.1054 118.325 6.06399 118.204 6.04632L112.946 5.27679L110.596 0.481671C110.511 0.3351 110.39 0.213442 110.243 0.1289C110.096 0.0443588 109.93 -9.42274e-05 109.761 1.49965e-07C109.592 9.45273e-05 109.426 0.044733 109.279 0.129438C109.132 0.214143 109.011 0.335937 108.926 0.482602L106.577 5.27679L101.319 6.04632C101.148 6.07128 100.986 6.14378 100.854 6.25562C100.721 6.36746 100.622 6.51421 100.568 6.67929C100.515 6.84437 100.508 7.02122 100.549 7.18989C100.59 7.35855 100.678 7.51231 100.802 7.63382L104.61 11.3725L103.711 16.6492C103.683 16.8205 103.703 16.9963 103.769 17.1569C103.834 17.3175 103.944 17.4565 104.084 17.5583C104.225 17.6602 104.391 17.7207 104.564 17.7333C104.736 17.7458 104.909 17.7098 105.063 17.6293L109.762 15.1419L114.459 17.6284C114.613 17.7097 114.786 17.7465 114.959 17.7344C115.132 17.7224 115.299 17.6621 115.439 17.5603C115.58 17.4585 115.69 17.3194 115.755 17.1585C115.821 16.9977 115.841 16.8216 115.812 16.6502L114.913 11.3725L118.722 7.63289C118.867 7.4907 118.961 7.30524 118.99 7.10466ZM114.088 10.8778C114.034 10.9305 113.994 10.9954 113.971 11.0669C113.948 11.1384 113.943 11.2145 113.955 11.2886L114.895 16.8048L109.978 14.2028C109.911 14.1679 109.837 14.1497 109.762 14.1497C109.686 14.1497 109.612 14.1679 109.545 14.2028L104.629 16.8058L105.568 11.2886C105.581 11.2145 105.575 11.1384 105.552 11.0669C105.529 10.9954 105.489 10.9305 105.435 10.8778L101.453 6.96771L106.954 6.16278C107.028 6.15162 107.099 6.12249 107.16 6.07787C107.222 6.03325 107.271 5.97448 107.304 5.90658L109.762 0.893453L112.218 5.90751C112.251 5.97552 112.301 6.03437 112.362 6.079C112.423 6.12363 112.495 6.15269 112.57 6.16371L118.071 6.96771L114.088 10.8778Z" fill="#F5AD7C"/>
</svg>
