<svg width="119" height="18" viewBox="0 0 119 18" fill="none" xmlns="http://www.w3.org/2000/svg">
<path d="M18.4678 7.10466C18.4858 6.98346 18.4796 6.85991 18.4498 6.74108C18.42 6.62226 18.367 6.51049 18.294 6.41219C18.221 6.31388 18.1293 6.23096 18.0242 6.16818C17.9191 6.1054 17.8027 6.06399 17.6816 6.04632L12.4239 5.27679L10.0737 0.481671C9.98889 0.3351 9.86706 0.213442 9.72045 0.1289C9.57384 0.0443588 9.4076 -9.42274e-05 9.23842 1.49965e-07C9.06923 9.45273e-05 8.90305 0.044733 8.75653 0.129438C8.61002 0.214143 8.48832 0.335937 8.40365 0.482602L6.05438 5.27679L0.796658 6.04632C0.62504 6.07128 0.463805 6.14378 0.331147 6.25562C0.198489 6.36746 0.0996885 6.51421 0.0458945 6.67929C-0.00789938 6.84437 -0.0145457 7.02122 0.0267057 7.18989C0.0679572 7.35855 0.155464 7.51231 0.279352 7.63382L4.0875 11.3725L3.18873 16.6492C3.16032 16.8205 3.18017 16.9963 3.24605 17.1569C3.31193 17.3175 3.42123 17.4565 3.56167 17.5583C3.70211 17.6602 3.86812 17.7207 4.04105 17.7333C4.21398 17.7458 4.38698 17.7098 4.54061 17.6293L9.23915 15.1419L13.9368 17.6284C14.0902 17.7097 14.2633 17.7465 14.4365 17.7344C14.6097 17.7224 14.7761 17.6621 14.9168 17.5603C15.0576 17.4585 15.1671 17.3194 15.2329 17.1585C15.2988 16.9977 15.3184 16.8216 15.2896 16.6502L14.3908 11.3725L18.1999 7.63289C18.3442 7.4907 18.4383 7.30524 18.4678 7.10466Z" fill="#F5AD7C"/>
<path d="M43.5985 7.10466C43.6164 6.98346 43.6102 6.85991 43.5804 6.74108C43.5506 6.62226 43.4976 6.51049 43.4246 6.41219C43.3516 6.31388 43.2599 6.23096 43.1548 6.16818C43.0498 6.1054 42.9333 6.06399 42.8123 6.04632L37.5545 5.27679L35.2043 0.481671C35.1195 0.3351 34.9977 0.213442 34.8511 0.1289C34.7045 0.0443588 34.5382 -9.42274e-05 34.369 1.49965e-07C34.1998 9.45273e-05 34.0337 0.044733 33.8871 0.129438C33.7406 0.214143 33.6189 0.335937 33.5343 0.482602L31.185 5.27679L25.9273 6.04632C25.7557 6.07128 25.5944 6.14378 25.4618 6.25562C25.3291 6.36746 25.2303 6.51421 25.1765 6.67929C25.1227 6.84437 25.1161 7.02122 25.1573 7.18989C25.1986 7.35855 25.2861 7.51231 25.41 7.63382L29.2181 11.3725L28.3193 16.6492C28.2909 16.8205 28.3108 16.9963 28.3767 17.1569C28.4425 17.3175 28.5518 17.4565 28.6923 17.5583C28.8327 17.6602 28.9987 17.7207 29.1717 17.7333C29.3446 17.7458 29.5176 17.7098 29.6712 17.6293L34.3698 15.1419L39.0674 17.6284C39.2208 17.7097 39.3939 17.7465 39.5671 17.7344C39.7403 17.7224 39.9067 17.6621 40.0474 17.5603C40.1882 17.4585 40.2977 17.3194 40.3636 17.1585C40.4294 16.9977 40.449 16.8216 40.4202 16.6502L39.5214 11.3725L43.3305 7.63289C43.4748 7.4907 43.5689 7.30524 43.5985 7.10466Z" fill="#F5AD7C"/>
<path d="M68.7288 7.10466C68.7467 6.98346 68.7406 6.85991 68.7108 6.74108C68.681 6.62226 68.628 6.51049 68.555 6.41219C68.4819 6.31388 68.3903 6.23096 68.2852 6.16818C68.1801 6.1054 68.0637 6.06399 67.9426 6.04632L62.6849 5.27679L60.3347 0.481671C60.2499 0.3351 60.128 0.213442 59.9814 0.1289C59.8348 0.0443588 59.6686 -9.42274e-05 59.4994 1.49965e-07C59.3302 9.45273e-05 59.164 0.044733 59.0175 0.129438C58.871 0.214143 58.7493 0.335937 58.6646 0.482602L56.3154 5.27679L51.0576 6.04632C50.886 6.07128 50.7248 6.14378 50.5921 6.25562C50.4595 6.36746 50.3607 6.51421 50.3069 6.67929C50.2531 6.84437 50.2464 7.02122 50.2877 7.18989C50.3289 7.35855 50.4165 7.51231 50.5403 7.63382L54.3485 11.3725L53.4497 16.6492C53.4213 16.8205 53.4412 16.9963 53.507 17.1569C53.5729 17.3175 53.6822 17.4565 53.8227 17.5583C53.9631 17.6602 54.1291 17.7207 54.302 17.7333C54.475 17.7458 54.648 17.7098 54.8016 17.6293L59.5001 15.1419L64.1978 17.6284C64.3512 17.7097 64.5243 17.7465 64.6975 17.7344C64.8707 17.7224 65.0371 17.6621 65.1778 17.5603C65.3186 17.4585 65.4281 17.3194 65.4939 17.1585C65.5598 16.9977 65.5794 16.8216 65.5506 16.6502L64.6518 11.3725L68.4609 7.63289C68.6052 7.4907 68.6993 7.30524 68.7288 7.10466Z" fill="#F5AD7C"/>
<path d="M93.8594 7.10466C93.8774 6.98346 93.8712 6.85991 93.8414 6.74108C93.8116 6.62226 93.7586 6.51049 93.6856 6.41219C93.6126 6.31388 93.5209 6.23096 93.4158 6.16818C93.3107 6.1054 93.1943 6.06399 93.0732 6.04632L87.8155 5.27679L85.4653 0.481671C85.3805 0.3351 85.2587 0.213442 85.112 0.1289C84.9654 0.0443588 84.7992 -9.42274e-05 84.63 1.49965e-07C84.4608 9.45273e-05 84.2947 0.044733 84.1481 0.129438C84.0016 0.214143 83.8799 0.335937 83.7952 0.482602L81.446 5.27679L76.1883 6.04632C76.0166 6.07128 75.8554 6.14378 75.7227 6.25562C75.5901 6.36746 75.4913 6.51421 75.4375 6.67929C75.3837 6.84437 75.3771 7.02122 75.4183 7.18989C75.4596 7.35855 75.5471 7.51231 75.671 7.63382L79.4791 11.3725L78.5803 16.6492C78.5519 16.8205 78.5718 16.9963 78.6376 17.1569C78.7035 17.3175 78.8128 17.4565 78.9533 17.5583C79.0937 17.6602 79.2597 17.7207 79.4327 17.7333C79.6056 17.7458 79.7786 17.7098 79.9322 17.6293L84.6308 15.1419L89.3284 17.6284C89.4818 17.7097 89.6549 17.7465 89.8281 17.7344C90.0013 17.7224 90.1677 17.6621 90.3084 17.5603C90.4492 17.4585 90.5587 17.3194 90.6245 17.1585C90.6904 16.9977 90.71 16.8216 90.6812 16.6502L89.7824 11.3725L93.5915 7.63289C93.7358 7.4907 93.8299 7.30524 93.8594 7.10466Z" fill="#F5AD7C"/>
<path d="M118.99 7.10466C119.008 6.98346 119.002 6.85991 118.972 6.74108C118.942 6.62226 118.889 6.51049 118.816 6.41219C118.743 6.31388 118.652 6.23096 118.546 6.16818C118.441 6.1054 118.325 6.06399 118.204 6.04632L112.946 5.27679L110.596 0.481671C110.511 0.3351 110.389 0.213442 110.243 0.1289C110.096 0.0443588 109.93 -9.42274e-05 109.761 1.49965e-07C109.591 9.45273e-05 109.425 0.044733 109.279 0.129438C109.132 0.214143 109.011 0.335937 108.926 0.482602L106.577 5.27679L101.319 6.04632C101.147 6.07128 100.986 6.14378 100.853 6.25562C100.721 6.36746 100.622 6.51421 100.568 6.67929C100.514 6.84437 100.508 7.02122 100.549 7.18989C100.59 7.35855 100.678 7.51231 100.802 7.63382L104.61 11.3725L103.711 16.6492C103.683 16.8205 103.702 16.9963 103.768 17.1569C103.834 17.3175 103.943 17.4565 104.084 17.5583C104.224 17.6602 104.39 17.7207 104.563 17.7333C104.736 17.7458 104.909 17.7098 105.063 17.6293L109.761 15.1419L114.459 17.6284C114.612 17.7097 114.786 17.7465 114.959 17.7344C115.132 17.7224 115.298 17.6621 115.439 17.5603C115.58 17.4585 115.689 17.3194 115.755 17.1585C115.821 16.9977 115.841 16.8216 115.812 16.6502L114.913 11.3725L118.722 7.63289C118.866 7.4907 118.961 7.30524 118.99 7.10466Z" fill="#F5AD7C"/>
</svg>
