<svg width="18" height="15" viewBox="0 0 18 15" fill="none" xmlns="http://www.w3.org/2000/svg">
<path d="M8.0202 14.3687L6.96181 13.4114C5.34834 11.9456 3.92465 10.5202 2.69073 9.13512C1.45681 7.75008 0.839844 6.31069 0.839844 4.81696C0.839844 3.66382 1.23158 2.69551 2.01506 1.91204C2.79854 1.12856 3.76685 0.736816 4.91999 0.736816C5.58141 0.736816 6.27016 0.903913 6.98622 1.23811C7.70229 1.57232 8.37359 2.20265 9.00014 3.1291C9.62668 2.20265 10.298 1.57232 11.0141 1.23811C11.7301 0.903913 12.4189 0.736816 13.0803 0.736816C14.2334 0.736816 15.2017 1.12856 15.9852 1.91204C16.7687 2.69551 17.1604 3.66382 17.1604 4.81696C17.1604 6.34557 16.5182 7.81489 15.2337 9.22493C13.9492 10.635 12.5432 12.0322 11.0158 13.4167L9.98008 14.3513C9.70225 14.6024 9.3756 14.7308 9.00014 14.7366C8.62467 14.7424 8.29803 14.6198 8.0202 14.3687ZM8.55724 4.07068C8.01438 3.19537 7.45002 2.57201 6.86416 2.20061C6.2783 1.82922 5.63024 1.64352 4.91999 1.64352C4.01329 1.64352 3.25771 1.94575 2.65324 2.55022C2.04878 3.15468 1.74654 3.91026 1.74654 4.81696C1.74654 5.48653 1.93602 6.17324 2.31498 6.8771C2.69393 7.58095 3.20279 8.30195 3.84154 9.0401C4.48031 9.77824 5.21439 10.5332 6.04378 11.3051C6.87318 12.077 7.73658 12.8715 8.63397 13.6887C8.73859 13.7817 8.86064 13.8282 9.00014 13.8282C9.13964 13.8282 9.26169 13.7817 9.36631 13.6887C10.2637 12.8715 11.1271 12.077 11.9565 11.3051C12.7859 10.5332 13.52 9.77824 14.1587 9.0401C14.7975 8.30195 15.3063 7.58095 15.6853 6.8771C16.0643 6.17324 16.2537 5.48653 16.2537 4.81696C16.2537 3.91026 15.9515 3.15468 15.347 2.55022C14.7426 1.94575 13.987 1.64352 13.0803 1.64352C12.37 1.64352 11.722 1.82922 11.1361 2.20061C10.5503 2.57201 9.9859 3.19537 9.44304 4.07068C9.39538 4.15204 9.33086 4.21307 9.24948 4.25377C9.16811 4.29445 9.08499 4.31479 9.00014 4.31479C8.91529 4.31479 8.83217 4.29445 8.7508 4.25377C8.66942 4.21307 8.6049 4.15204 8.55724 4.07068Z" fill="black"/>
</svg>
